<?xml version="1.0" encoding="utf-8" standalone="no"?>
<!DOCTYPE svg PUBLIC "-//W3C//DTD SVG 1.1//EN"
  "http://www.w3.org/Graphics/SVG/1.1/DTD/svg11.dtd">
<svg height="568.8pt" version="1.1" viewBox="0 0 568.8 568.8" width="568.8pt" xmlns="http://www.w3.org/2000/svg" xmlns:xlink="http://www.w3.org/1999/xlink">
 <metadata>
  <rdf:RDF xmlns:cc="http://creativecommons.org/ns#" xmlns:dc="http://purl.org/dc/elements/1.1/" xmlns:rdf="http://www.w3.org/1999/02/22-rdf-syntax-ns#">
   <cc:Work>
    <dc:type rdf:resource="http://purl.org/dc/dcmitype/StillImage"/>
    <dc:date>2026-04-22T21:53:36.497453</dc:date>
    <dc:format>image/svg+xml</dc:format>
    <dc:creator>
     <cc:Agent>
      <dc:title>Matplotlib v3.4.3, https://matplotlib.org/</dc:title>
     </cc:Agent>
    </dc:creator>
   </cc:Work>
  </rdf:RDF>
 </metadata>
 <defs>
  <style type="text/css">*{stroke-linecap:butt;stroke-linejoin:round;}</style>
 </defs>
 <g id="figure_1">
  <g id="patch_1">
   <path d="M 0 568.8 
L 568.8 568.8 
L 568.8 0 
L 0 0 
z
" style="fill:#ffffff;"/>
  </g>
  <g id="axes_1">
   <g id="patch_2">
    <path clip-path="url(#p3f140f47a8)" d="M 25.68 543.12 
L 99.6 543.12 
L 99.6 469.2 
L 25.68 469.2 
z
" style="fill:#4a90e2;opacity:0.3;"/>
   </g>
   <g id="patch_3">
    <path clip-path="url(#p3f140f47a8)" d="M 99.6 543.12 
L 173.52 543.12 
L 173.52 469.2 
L 99.6 469.2 
z
" style="fill:#4a90e2;opacity:0.3;"/>
   </g>
   <g id="patch_4">
    <path clip-path="url(#p3f140f47a8)" d="M 173.52 543.12 
L 247.44 543.12 
L 247.44 469.2 
L 173.52 469.2 
z
" style="fill:#4a90e2;opacity:0.3;"/>
   </g>
   <g id="patch_5">
    <path clip-path="url(#p3f140f47a8)" d="M 247.44 543.12 
L 321.36 543.12 
L 321.36 469.2 
L 247.44 469.2 
z
" style="fill:#4a90e2;opacity:0.3;"/>
   </g>
   <g id="patch_6">
    <path clip-path="url(#p3f140f47a8)" d="M 321.36 543.12 
L 395.28 543.12 
L 395.28 469.2 
L 321.36 469.2 
z
" style="fill:#4a90e2;opacity:0.3;"/>
   </g>
   <g id="patch_7">
    <path clip-path="url(#p3f140f47a8)" d="M 395.28 543.12 
L 469.2 543.12 
L 469.2 469.2 
L 395.28 469.2 
z
" style="fill:#4a90e2;opacity:0.3;"/>
   </g>
   <g id="patch_8">
    <path clip-path="url(#p3f140f47a8)" d="M 469.2 543.12 
L 543.12 543.12 
L 543.12 469.2 
L 469.2 469.2 
z
" style="fill:#4a90e2;opacity:0.3;"/>
   </g>
   <g id="patch_9">
    <path clip-path="url(#p3f140f47a8)" d="M 25.68 469.2 
L 99.6 469.2 
L 99.6 395.28 
L 25.68 395.28 
z
" style="fill:#4a90e2;opacity:0.3;"/>
   </g>
   <g id="patch_10">
    <path clip-path="url(#p3f140f47a8)" d="M 99.6 469.2 
L 173.52 469.2 
L 173.52 395.28 
L 99.6 395.28 
z
" style="fill:#4a90e2;opacity:0.3;"/>
   </g>
   <g id="patch_11">
    <path clip-path="url(#p3f140f47a8)" d="M 173.52 469.2 
L 247.44 469.2 
L 247.44 395.28 
L 173.52 395.28 
z
" style="fill:#4a90e2;opacity:0.3;"/>
   </g>
   <g id="patch_12">
    <path clip-path="url(#p3f140f47a8)" d="M 247.44 469.2 
L 321.36 469.2 
L 321.36 395.28 
L 247.44 395.28 
z
" style="fill:#4a90e2;opacity:0.3;"/>
   </g>
   <g id="patch_13">
    <path clip-path="url(#p3f140f47a8)" d="M 321.36 469.2 
L 395.28 469.2 
L 395.28 395.28 
L 321.36 395.28 
z
" style="fill:#4a90e2;opacity:0.3;"/>
   </g>
   <g id="patch_14">
    <path clip-path="url(#p3f140f47a8)" d="M 395.28 469.2 
L 469.2 469.2 
L 469.2 395.28 
L 395.28 395.28 
z
" style="fill:#4a90e2;opacity:0.3;"/>
   </g>
   <g id="patch_15">
    <path clip-path="url(#p3f140f47a8)" d="M 469.2 469.2 
L 543.12 469.2 
L 543.12 395.28 
L 469.2 395.28 
z
" style="fill:#4a90e2;opacity:0.3;"/>
   </g>
   <g id="patch_16">
    <path clip-path="url(#p3f140f47a8)" d="M 25.68 395.28 
L 99.6 395.28 
L 99.6 321.36 
L 25.68 321.36 
z
" style="fill:#4a90e2;opacity:0.3;"/>
   </g>
   <g id="patch_17">
    <path clip-path="url(#p3f140f47a8)" d="M 99.6 395.28 
L 173.52 395.28 
L 173.52 321.36 
L 99.6 321.36 
z
" style="fill:#4a90e2;opacity:0.3;"/>
   </g>
   <g id="patch_18">
    <path clip-path="url(#p3f140f47a8)" d="M 173.52 395.28 
L 247.44 395.28 
L 247.44 321.36 
L 173.52 321.36 
z
" style="fill:#4a90e2;opacity:0.3;"/>
   </g>
   <g id="patch_19">
    <path clip-path="url(#p3f140f47a8)" d="M 247.44 395.28 
L 321.36 395.28 
L 321.36 321.36 
L 247.44 321.36 
z
" style="fill:#4a90e2;opacity:0.3;"/>
   </g>
   <g id="patch_20">
    <path clip-path="url(#p3f140f47a8)" d="M 321.36 395.28 
L 395.28 395.28 
L 395.28 321.36 
L 321.36 321.36 
z
" style="fill:#4a90e2;opacity:0.3;"/>
   </g>
   <g id="patch_21">
    <path clip-path="url(#p3f140f47a8)" d="M 395.28 395.28 
L 469.2 395.28 
L 469.2 321.36 
L 395.28 321.36 
z
" style="fill:#4a90e2;opacity:0.3;"/>
   </g>
   <g id="patch_22">
    <path clip-path="url(#p3f140f47a8)" d="M 469.2 395.28 
L 543.12 395.28 
L 543.12 321.36 
L 469.2 321.36 
z
" style="fill:#4a90e2;opacity:0.3;"/>
   </g>
   <g id="patch_23">
    <path clip-path="url(#p3f140f47a8)" d="M 25.68 321.36 
L 99.6 321.36 
L 99.6 247.44 
L 25.68 247.44 
z
" style="fill:#4a90e2;opacity:0.3;"/>
   </g>
   <g id="patch_24">
    <path clip-path="url(#p3f140f47a8)" d="M 99.6 321.36 
L 173.52 321.36 
L 173.52 247.44 
L 99.6 247.44 
z
" style="fill:#4a90e2;opacity:0.3;"/>
   </g>
   <g id="patch_25">
    <path clip-path="url(#p3f140f47a8)" d="M 173.52 321.36 
L 247.44 321.36 
L 247.44 247.44 
L 173.52 247.44 
z
" style="fill:#4a90e2;opacity:0.3;"/>
   </g>
   <g id="patch_26">
    <path clip-path="url(#p3f140f47a8)" d="M 247.44 321.36 
L 321.36 321.36 
L 321.36 247.44 
L 247.44 247.44 
z
" style="fill:#4a90e2;opacity:0.3;"/>
   </g>
   <g id="patch_27">
    <path clip-path="url(#p3f140f47a8)" d="M 321.36 321.36 
L 395.28 321.36 
L 395.28 247.44 
L 321.36 247.44 
z
" style="fill:#4a90e2;opacity:0.3;"/>
   </g>
   <g id="patch_28">
    <path clip-path="url(#p3f140f47a8)" d="M 395.28 321.36 
L 469.2 321.36 
L 469.2 247.44 
L 395.28 247.44 
z
" style="fill:#4a90e2;opacity:0.3;"/>
   </g>
   <g id="patch_29">
    <path clip-path="url(#p3f140f47a8)" d="M 469.2 321.36 
L 543.12 321.36 
L 543.12 247.44 
L 469.2 247.44 
z
" style="fill:#4a90e2;opacity:0.3;"/>
   </g>
   <g id="patch_30">
    <path clip-path="url(#p3f140f47a8)" d="M 25.68 247.44 
L 99.6 247.44 
L 99.6 173.52 
L 25.68 173.52 
z
" style="fill:#4a90e2;opacity:0.3;"/>
   </g>
   <g id="patch_31">
    <path clip-path="url(#p3f140f47a8)" d="M 99.6 247.44 
L 173.52 247.44 
L 173.52 173.52 
L 99.6 173.52 
z
" style="fill:#4a90e2;opacity:0.3;"/>
   </g>
   <g id="patch_32">
    <path clip-path="url(#p3f140f47a8)" d="M 173.52 247.44 
L 247.44 247.44 
L 247.44 173.52 
L 173.52 173.52 
z
" style="fill:#4a90e2;opacity:0.3;"/>
   </g>
   <g id="patch_33">
    <path clip-path="url(#p3f140f47a8)" d="M 247.44 247.44 
L 321.36 247.44 
L 321.36 173.52 
L 247.44 173.52 
z
" style="fill:#4a90e2;opacity:0.3;"/>
   </g>
   <g id="patch_34">
    <path clip-path="url(#p3f140f47a8)" d="M 321.36 247.44 
L 395.28 247.44 
L 395.28 173.52 
L 321.36 173.52 
z
" style="fill:#4a90e2;opacity:0.3;"/>
   </g>
   <g id="patch_35">
    <path clip-path="url(#p3f140f47a8)" d="M 395.28 247.44 
L 469.2 247.44 
L 469.2 173.52 
L 395.28 173.52 
z
" style="fill:#4a90e2;opacity:0.3;"/>
   </g>
   <g id="patch_36">
    <path clip-path="url(#p3f140f47a8)" d="M 469.2 247.44 
L 543.12 247.44 
L 543.12 173.52 
L 469.2 173.52 
z
" style="fill:#4a90e2;opacity:0.3;"/>
   </g>
   <g id="patch_37">
    <path clip-path="url(#p3f140f47a8)" d="M 25.68 173.52 
L 99.6 173.52 
L 99.6 99.6 
L 25.68 99.6 
z
" style="fill:#4a90e2;opacity:0.3;"/>
   </g>
   <g id="patch_38">
    <path clip-path="url(#p3f140f47a8)" d="M 99.6 173.52 
L 173.52 173.52 
L 173.52 99.6 
L 99.6 99.6 
z
" style="fill:#4a90e2;opacity:0.3;"/>
   </g>
   <g id="patch_39">
    <path clip-path="url(#p3f140f47a8)" d="M 173.52 173.52 
L 247.44 173.52 
L 247.44 99.6 
L 173.52 99.6 
z
" style="fill:#4a90e2;opacity:0.3;"/>
   </g>
   <g id="patch_40">
    <path clip-path="url(#p3f140f47a8)" d="M 247.44 173.52 
L 321.36 173.52 
L 321.36 99.6 
L 247.44 99.6 
z
" style="fill:#4a90e2;opacity:0.3;"/>
   </g>
   <g id="patch_41">
    <path clip-path="url(#p3f140f47a8)" d="M 321.36 173.52 
L 395.28 173.52 
L 395.28 99.6 
L 321.36 99.6 
z
" style="fill:#4a90e2;opacity:0.3;"/>
   </g>
   <g id="patch_42">
    <path clip-path="url(#p3f140f47a8)" d="M 395.28 173.52 
L 469.2 173.52 
L 469.2 99.6 
L 395.28 99.6 
z
" style="fill:#4a90e2;opacity:0.3;"/>
   </g>
   <g id="patch_43">
    <path clip-path="url(#p3f140f47a8)" d="M 469.2 173.52 
L 543.12 173.52 
L 543.12 99.6 
L 469.2 99.6 
z
" style="fill:#4a90e2;opacity:0.3;"/>
   </g>
   <g id="patch_44">
    <path clip-path="url(#p3f140f47a8)" d="M 25.68 99.6 
L 99.6 99.6 
L 99.6 25.68 
L 25.68 25.68 
z
" style="fill:#4a90e2;opacity:0.3;"/>
   </g>
   <g id="patch_45">
    <path clip-path="url(#p3f140f47a8)" d="M 99.6 99.6 
L 173.52 99.6 
L 173.52 25.68 
L 99.6 25.68 
z
" style="fill:#4a90e2;opacity:0.3;"/>
   </g>
   <g id="patch_46">
    <path clip-path="url(#p3f140f47a8)" d="M 173.52 99.6 
L 247.44 99.6 
L 247.44 25.68 
L 173.52 25.68 
z
" style="fill:#4a90e2;opacity:0.3;"/>
   </g>
   <g id="patch_47">
    <path clip-path="url(#p3f140f47a8)" d="M 247.44 99.6 
L 321.36 99.6 
L 321.36 25.68 
L 247.44 25.68 
z
" style="fill:#4a90e2;opacity:0.3;"/>
   </g>
   <g id="patch_48">
    <path clip-path="url(#p3f140f47a8)" d="M 321.36 99.6 
L 395.28 99.6 
L 395.28 25.68 
L 321.36 25.68 
z
" style="fill:#4a90e2;opacity:0.3;"/>
   </g>
   <g id="patch_49">
    <path clip-path="url(#p3f140f47a8)" d="M 395.28 99.6 
L 469.2 99.6 
L 469.2 25.68 
L 395.28 25.68 
z
" style="fill:#4a90e2;opacity:0.3;"/>
   </g>
   <g id="patch_50">
    <path clip-path="url(#p3f140f47a8)" d="M 469.2 99.6 
L 543.12 99.6 
L 543.12 25.68 
L 469.2 25.68 
z
" style="fill:#4a90e2;opacity:0.3;"/>
   </g>
   <g id="line2d_1">
    <path clip-path="url(#p3f140f47a8)" d="M 25.68 543.12 
L 25.68 25.68 
" style="fill:none;stroke:#27ae60;stroke-linecap:square;stroke-width:0.8;"/>
   </g>
   <g id="line2d_2">
    <path clip-path="url(#p3f140f47a8)" d="M 25.68 543.12 
L 543.12 543.12 
" style="fill:none;stroke:#27ae60;stroke-linecap:square;stroke-width:0.8;"/>
   </g>
   <g id="line2d_3">
    <path clip-path="url(#p3f140f47a8)" d="M 62.64 543.12 
L 62.64 25.68 
" style="fill:none;stroke:#27ae60;stroke-linecap:square;stroke-width:0.8;"/>
   </g>
   <g id="line2d_4">
    <path clip-path="url(#p3f140f47a8)" d="M 25.68 506.16 
L 543.12 506.16 
" style="fill:none;stroke:#27ae60;stroke-linecap:square;stroke-width:0.8;"/>
   </g>
   <g id="line2d_5">
    <path clip-path="url(#p3f140f47a8)" d="M 99.6 543.12 
L 99.6 25.68 
" style="fill:none;stroke:#27ae60;stroke-linecap:square;stroke-width:0.8;"/>
   </g>
   <g id="line2d_6">
    <path clip-path="url(#p3f140f47a8)" d="M 25.68 469.2 
L 543.12 469.2 
" style="fill:none;stroke:#27ae60;stroke-linecap:square;stroke-width:0.8;"/>
   </g>
   <g id="line2d_7">
    <path clip-path="url(#p3f140f47a8)" d="M 136.56 543.12 
L 136.56 25.68 
" style="fill:none;stroke:#27ae60;stroke-linecap:square;stroke-width:0.8;"/>
   </g>
   <g id="line2d_8">
    <path clip-path="url(#p3f140f47a8)" d="M 25.68 432.24 
L 543.12 432.24 
" style="fill:none;stroke:#27ae60;stroke-linecap:square;stroke-width:0.8;"/>
   </g>
   <g id="line2d_9">
    <path clip-path="url(#p3f140f47a8)" d="M 173.52 543.12 
L 173.52 25.68 
" style="fill:none;stroke:#27ae60;stroke-linecap:square;stroke-width:0.8;"/>
   </g>
   <g id="line2d_10">
    <path clip-path="url(#p3f140f47a8)" d="M 25.68 395.28 
L 543.12 395.28 
" style="fill:none;stroke:#27ae60;stroke-linecap:square;stroke-width:0.8;"/>
   </g>
   <g id="line2d_11">
    <path clip-path="url(#p3f140f47a8)" d="M 210.48 543.12 
L 210.48 25.68 
" style="fill:none;stroke:#27ae60;stroke-linecap:square;stroke-width:0.8;"/>
   </g>
   <g id="line2d_12">
    <path clip-path="url(#p3f140f47a8)" d="M 25.68 358.32 
L 543.12 358.32 
" style="fill:none;stroke:#27ae60;stroke-linecap:square;stroke-width:0.8;"/>
   </g>
   <g id="line2d_13">
    <path clip-path="url(#p3f140f47a8)" d="M 247.44 543.12 
L 247.44 25.68 
" style="fill:none;stroke:#27ae60;stroke-linecap:square;stroke-width:0.8;"/>
   </g>
   <g id="line2d_14">
    <path clip-path="url(#p3f140f47a8)" d="M 25.68 321.36 
L 543.12 321.36 
" style="fill:none;stroke:#27ae60;stroke-linecap:square;stroke-width:0.8;"/>
   </g>
   <g id="line2d_15">
    <path clip-path="url(#p3f140f47a8)" d="M 284.4 543.12 
L 284.4 25.68 
" style="fill:none;stroke:#27ae60;stroke-linecap:square;stroke-width:0.8;"/>
   </g>
   <g id="line2d_16">
    <path clip-path="url(#p3f140f47a8)" d="M 25.68 284.4 
L 543.12 284.4 
" style="fill:none;stroke:#27ae60;stroke-linecap:square;stroke-width:0.8;"/>
   </g>
   <g id="line2d_17">
    <path clip-path="url(#p3f140f47a8)" d="M 321.36 543.12 
L 321.36 25.68 
" style="fill:none;stroke:#27ae60;stroke-linecap:square;stroke-width:0.8;"/>
   </g>
   <g id="line2d_18">
    <path clip-path="url(#p3f140f47a8)" d="M 25.68 247.44 
L 543.12 247.44 
" style="fill:none;stroke:#27ae60;stroke-linecap:square;stroke-width:0.8;"/>
   </g>
   <g id="line2d_19">
    <path clip-path="url(#p3f140f47a8)" d="M 358.32 543.12 
L 358.32 25.68 
" style="fill:none;stroke:#27ae60;stroke-linecap:square;stroke-width:0.8;"/>
   </g>
   <g id="line2d_20">
    <path clip-path="url(#p3f140f47a8)" d="M 25.68 210.48 
L 543.12 210.48 
" style="fill:none;stroke:#27ae60;stroke-linecap:square;stroke-width:0.8;"/>
   </g>
   <g id="line2d_21">
    <path clip-path="url(#p3f140f47a8)" d="M 395.28 543.12 
L 395.28 25.68 
" style="fill:none;stroke:#27ae60;stroke-linecap:square;stroke-width:0.8;"/>
   </g>
   <g id="line2d_22">
    <path clip-path="url(#p3f140f47a8)" d="M 25.68 173.52 
L 543.12 173.52 
" style="fill:none;stroke:#27ae60;stroke-linecap:square;stroke-width:0.8;"/>
   </g>
   <g id="line2d_23">
    <path clip-path="url(#p3f140f47a8)" d="M 432.24 543.12 
L 432.24 25.68 
" style="fill:none;stroke:#27ae60;stroke-linecap:square;stroke-width:0.8;"/>
   </g>
   <g id="line2d_24">
    <path clip-path="url(#p3f140f47a8)" d="M 25.68 136.56 
L 543.12 136.56 
" style="fill:none;stroke:#27ae60;stroke-linecap:square;stroke-width:0.8;"/>
   </g>
   <g id="line2d_25">
    <path clip-path="url(#p3f140f47a8)" d="M 469.2 543.12 
L 469.2 25.68 
" style="fill:none;stroke:#27ae60;stroke-linecap:square;stroke-width:0.8;"/>
   </g>
   <g id="line2d_26">
    <path clip-path="url(#p3f140f47a8)" d="M 25.68 99.6 
L 543.12 99.6 
" style="fill:none;stroke:#27ae60;stroke-linecap:square;stroke-width:0.8;"/>
   </g>
   <g id="line2d_27">
    <path clip-path="url(#p3f140f47a8)" d="M 506.16 543.12 
L 506.16 25.68 
" style="fill:none;stroke:#27ae60;stroke-linecap:square;stroke-width:0.8;"/>
   </g>
   <g id="line2d_28">
    <path clip-path="url(#p3f140f47a8)" d="M 25.68 62.64 
L 543.12 62.64 
" style="fill:none;stroke:#27ae60;stroke-linecap:square;stroke-width:0.8;"/>
   </g>
   <g id="line2d_29">
    <path clip-path="url(#p3f140f47a8)" d="M 543.12 543.12 
L 543.12 25.68 
" style="fill:none;stroke:#27ae60;stroke-linecap:square;stroke-width:0.8;"/>
   </g>
   <g id="line2d_30">
    <path clip-path="url(#p3f140f47a8)" d="M 25.68 25.68 
L 543.12 25.68 
" style="fill:none;stroke:#27ae60;stroke-linecap:square;stroke-width:0.8;"/>
   </g>
   <g id="line2d_31">
    <path clip-path="url(#p3f140f47a8)" d="M 25.68 543.12 
L 543.12 543.12 
" style="fill:none;stroke:#2c3e50;stroke-linecap:square;stroke-width:2.5;"/>
   </g>
   <g id="line2d_32">
    <path clip-path="url(#p3f140f47a8)" d="M 25.68 543.12 
L 25.68 25.68 
" style="fill:none;stroke:#2c3e50;stroke-linecap:square;stroke-width:2.5;"/>
   </g>
   <g id="line2d_33">
    <path clip-path="url(#p3f140f47a8)" d="M 25.68 469.2 
L 543.12 469.2 
" style="fill:none;stroke:#2c3e50;stroke-linecap:square;stroke-width:2.5;"/>
   </g>
   <g id="line2d_34">
    <path clip-path="url(#p3f140f47a8)" d="M 99.6 543.12 
L 99.6 25.68 
" style="fill:none;stroke:#2c3e50;stroke-linecap:square;stroke-width:2.5;"/>
   </g>
   <g id="line2d_35">
    <path clip-path="url(#p3f140f47a8)" d="M 25.68 395.28 
L 543.12 395.28 
" style="fill:none;stroke:#2c3e50;stroke-linecap:square;stroke-width:2.5;"/>
   </g>
   <g id="line2d_36">
    <path clip-path="url(#p3f140f47a8)" d="M 173.52 543.12 
L 173.52 25.68 
" style="fill:none;stroke:#2c3e50;stroke-linecap:square;stroke-width:2.5;"/>
   </g>
   <g id="line2d_37">
    <path clip-path="url(#p3f140f47a8)" d="M 25.68 321.36 
L 543.12 321.36 
" style="fill:none;stroke:#2c3e50;stroke-linecap:square;stroke-width:2.5;"/>
   </g>
   <g id="line2d_38">
    <path clip-path="url(#p3f140f47a8)" d="M 247.44 543.12 
L 247.44 25.68 
" style="fill:none;stroke:#2c3e50;stroke-linecap:square;stroke-width:2.5;"/>
   </g>
   <g id="line2d_39">
    <path clip-path="url(#p3f140f47a8)" d="M 25.68 247.44 
L 543.12 247.44 
" style="fill:none;stroke:#2c3e50;stroke-linecap:square;stroke-width:2.5;"/>
   </g>
   <g id="line2d_40">
    <path clip-path="url(#p3f140f47a8)" d="M 321.36 543.12 
L 321.36 25.68 
" style="fill:none;stroke:#2c3e50;stroke-linecap:square;stroke-width:2.5;"/>
   </g>
   <g id="line2d_41">
    <path clip-path="url(#p3f140f47a8)" d="M 25.68 173.52 
L 543.12 173.52 
" style="fill:none;stroke:#2c3e50;stroke-linecap:square;stroke-width:2.5;"/>
   </g>
   <g id="line2d_42">
    <path clip-path="url(#p3f140f47a8)" d="M 395.28 543.12 
L 395.28 25.68 
" style="fill:none;stroke:#2c3e50;stroke-linecap:square;stroke-width:2.5;"/>
   </g>
   <g id="line2d_43">
    <path clip-path="url(#p3f140f47a8)" d="M 25.68 99.6 
L 543.12 99.6 
" style="fill:none;stroke:#2c3e50;stroke-linecap:square;stroke-width:2.5;"/>
   </g>
   <g id="line2d_44">
    <path clip-path="url(#p3f140f47a8)" d="M 469.2 543.12 
L 469.2 25.68 
" style="fill:none;stroke:#2c3e50;stroke-linecap:square;stroke-width:2.5;"/>
   </g>
   <g id="line2d_45">
    <path clip-path="url(#p3f140f47a8)" d="M 25.68 25.68 
L 543.12 25.68 
" style="fill:none;stroke:#2c3e50;stroke-linecap:square;stroke-width:2.5;"/>
   </g>
   <g id="line2d_46">
    <path clip-path="url(#p3f140f47a8)" d="M 543.12 543.12 
L 543.12 25.68 
" style="fill:none;stroke:#2c3e50;stroke-linecap:square;stroke-width:2.5;"/>
   </g>
   <g id="text_1">
    <!-- (0,0) -->
    <g style="fill:#ffffff;" transform="translate(47.869922 509.195312)scale(0.11 -0.11)">
     <defs>
      <path d="M 2413 -844 
L 1484 -844 
Q 1006 -72 778 623 
Q 550 1319 550 2003 
Q 550 2688 779 3389 
Q 1009 4091 1484 4856 
L 2413 4856 
Q 2013 4116 1813 3408 
Q 1613 2700 1613 2009 
Q 1613 1319 1811 609 
Q 2009 -100 2413 -844 
z
" id="DejaVuSans-Bold-28" transform="scale(0.015625)"/>
      <path d="M 2944 2338 
Q 2944 3213 2780 3570 
Q 2616 3928 2228 3928 
Q 1841 3928 1675 3570 
Q 1509 3213 1509 2338 
Q 1509 1453 1675 1090 
Q 1841 728 2228 728 
Q 2613 728 2778 1090 
Q 2944 1453 2944 2338 
z
M 4147 2328 
Q 4147 1169 3647 539 
Q 3147 -91 2228 -91 
Q 1306 -91 806 539 
Q 306 1169 306 2328 
Q 306 3491 806 4120 
Q 1306 4750 2228 4750 
Q 3147 4750 3647 4120 
Q 4147 3491 4147 2328 
z
" id="DejaVuSans-Bold-30" transform="scale(0.015625)"/>
      <path d="M 653 1209 
L 1778 1209 
L 1778 256 
L 1006 -909 
L 341 -909 
L 653 256 
L 653 1209 
z
" id="DejaVuSans-Bold-2c" transform="scale(0.015625)"/>
      <path d="M 513 -844 
Q 913 -100 1113 609 
Q 1313 1319 1313 2009 
Q 1313 2700 1113 3408 
Q 913 4116 513 4856 
L 1441 4856 
Q 1916 4091 2145 3389 
Q 2375 2688 2375 2003 
Q 2375 1319 2147 623 
Q 1919 -72 1441 -844 
L 513 -844 
z
" id="DejaVuSans-Bold-29" transform="scale(0.015625)"/>
     </defs>
     <use xlink:href="#DejaVuSans-Bold-28"/>
     <use x="45.703125" xlink:href="#DejaVuSans-Bold-30"/>
     <use x="115.283203" xlink:href="#DejaVuSans-Bold-2c"/>
     <use x="153.271484" xlink:href="#DejaVuSans-Bold-30"/>
     <use x="222.851562" xlink:href="#DejaVuSans-Bold-29"/>
    </g>
   </g>
   <g id="text_2">
    <!-- (0,1) -->
    <g style="fill:#ffffff;" transform="translate(121.789922 509.195312)scale(0.11 -0.11)">
     <defs>
      <path d="M 750 831 
L 1813 831 
L 1813 3847 
L 722 3622 
L 722 4441 
L 1806 4666 
L 2950 4666 
L 2950 831 
L 4013 831 
L 4013 0 
L 750 0 
L 750 831 
z
" id="DejaVuSans-Bold-31" transform="scale(0.015625)"/>
     </defs>
     <use xlink:href="#DejaVuSans-Bold-28"/>
     <use x="45.703125" xlink:href="#DejaVuSans-Bold-30"/>
     <use x="115.283203" xlink:href="#DejaVuSans-Bold-2c"/>
     <use x="153.271484" xlink:href="#DejaVuSans-Bold-31"/>
     <use x="222.851562" xlink:href="#DejaVuSans-Bold-29"/>
    </g>
   </g>
   <g id="text_3">
    <!-- (0,2) -->
    <g style="fill:#ffffff;" transform="translate(195.709922 509.195312)scale(0.11 -0.11)">
     <defs>
      <path d="M 1844 884 
L 3897 884 
L 3897 0 
L 506 0 
L 506 884 
L 2209 2388 
Q 2438 2594 2547 2791 
Q 2656 2988 2656 3200 
Q 2656 3528 2436 3728 
Q 2216 3928 1850 3928 
Q 1569 3928 1234 3808 
Q 900 3688 519 3450 
L 519 4475 
Q 925 4609 1322 4679 
Q 1719 4750 2100 4750 
Q 2938 4750 3402 4381 
Q 3866 4013 3866 3353 
Q 3866 2972 3669 2642 
Q 3472 2313 2841 1759 
L 1844 884 
z
" id="DejaVuSans-Bold-32" transform="scale(0.015625)"/>
     </defs>
     <use xlink:href="#DejaVuSans-Bold-28"/>
     <use x="45.703125" xlink:href="#DejaVuSans-Bold-30"/>
     <use x="115.283203" xlink:href="#DejaVuSans-Bold-2c"/>
     <use x="153.271484" xlink:href="#DejaVuSans-Bold-32"/>
     <use x="222.851562" xlink:href="#DejaVuSans-Bold-29"/>
    </g>
   </g>
   <g id="text_4">
    <!-- (0,3) -->
    <g style="fill:#ffffff;" transform="translate(269.629922 509.195312)scale(0.11 -0.11)">
     <defs>
      <path d="M 2981 2516 
Q 3453 2394 3698 2092 
Q 3944 1791 3944 1325 
Q 3944 631 3412 270 
Q 2881 -91 1863 -91 
Q 1503 -91 1142 -33 
Q 781 25 428 141 
L 428 1069 
Q 766 900 1098 814 
Q 1431 728 1753 728 
Q 2231 728 2486 893 
Q 2741 1059 2741 1369 
Q 2741 1688 2480 1852 
Q 2219 2016 1709 2016 
L 1228 2016 
L 1228 2791 
L 1734 2791 
Q 2188 2791 2409 2933 
Q 2631 3075 2631 3366 
Q 2631 3634 2415 3781 
Q 2200 3928 1806 3928 
Q 1516 3928 1219 3862 
Q 922 3797 628 3669 
L 628 4550 
Q 984 4650 1334 4700 
Q 1684 4750 2022 4750 
Q 2931 4750 3382 4451 
Q 3834 4153 3834 3553 
Q 3834 3144 3618 2883 
Q 3403 2622 2981 2516 
z
" id="DejaVuSans-Bold-33" transform="scale(0.015625)"/>
     </defs>
     <use xlink:href="#DejaVuSans-Bold-28"/>
     <use x="45.703125" xlink:href="#DejaVuSans-Bold-30"/>
     <use x="115.283203" xlink:href="#DejaVuSans-Bold-2c"/>
     <use x="153.271484" xlink:href="#DejaVuSans-Bold-33"/>
     <use x="222.851562" xlink:href="#DejaVuSans-Bold-29"/>
    </g>
   </g>
   <g id="text_5">
    <!-- (0,4) -->
    <g style="fill:#ffffff;" transform="translate(343.549922 509.195312)scale(0.11 -0.11)">
     <defs>
      <path d="M 2356 3675 
L 1038 1722 
L 2356 1722 
L 2356 3675 
z
M 2156 4666 
L 3494 4666 
L 3494 1722 
L 4159 1722 
L 4159 850 
L 3494 850 
L 3494 0 
L 2356 0 
L 2356 850 
L 288 850 
L 288 1881 
L 2156 4666 
z
" id="DejaVuSans-Bold-34" transform="scale(0.015625)"/>
     </defs>
     <use xlink:href="#DejaVuSans-Bold-28"/>
     <use x="45.703125" xlink:href="#DejaVuSans-Bold-30"/>
     <use x="115.283203" xlink:href="#DejaVuSans-Bold-2c"/>
     <use x="153.271484" xlink:href="#DejaVuSans-Bold-34"/>
     <use x="222.851562" xlink:href="#DejaVuSans-Bold-29"/>
    </g>
   </g>
   <g id="text_6">
    <!-- (0,5) -->
    <g style="fill:#ffffff;" transform="translate(417.469922 509.195312)scale(0.11 -0.11)">
     <defs>
      <path d="M 678 4666 
L 3669 4666 
L 3669 3781 
L 1638 3781 
L 1638 3059 
Q 1775 3097 1914 3117 
Q 2053 3138 2203 3138 
Q 3056 3138 3531 2711 
Q 4006 2284 4006 1522 
Q 4006 766 3489 337 
Q 2972 -91 2053 -91 
Q 1656 -91 1267 -14 
Q 878 63 494 219 
L 494 1166 
Q 875 947 1217 837 
Q 1559 728 1863 728 
Q 2300 728 2551 942 
Q 2803 1156 2803 1522 
Q 2803 1891 2551 2103 
Q 2300 2316 1863 2316 
Q 1603 2316 1309 2248 
Q 1016 2181 678 2041 
L 678 4666 
z
" id="DejaVuSans-Bold-35" transform="scale(0.015625)"/>
     </defs>
     <use xlink:href="#DejaVuSans-Bold-28"/>
     <use x="45.703125" xlink:href="#DejaVuSans-Bold-30"/>
     <use x="115.283203" xlink:href="#DejaVuSans-Bold-2c"/>
     <use x="153.271484" xlink:href="#DejaVuSans-Bold-35"/>
     <use x="222.851562" xlink:href="#DejaVuSans-Bold-29"/>
    </g>
   </g>
   <g id="text_7">
    <!-- (0,6) -->
    <g style="fill:#ffffff;" transform="translate(491.389922 509.195312)scale(0.11 -0.11)">
     <defs>
      <path d="M 2316 2303 
Q 2000 2303 1842 2098 
Q 1684 1894 1684 1484 
Q 1684 1075 1842 870 
Q 2000 666 2316 666 
Q 2634 666 2792 870 
Q 2950 1075 2950 1484 
Q 2950 1894 2792 2098 
Q 2634 2303 2316 2303 
z
M 3803 4544 
L 3803 3681 
Q 3506 3822 3243 3889 
Q 2981 3956 2731 3956 
Q 2194 3956 1894 3657 
Q 1594 3359 1544 2772 
Q 1750 2925 1990 3001 
Q 2231 3078 2516 3078 
Q 3231 3078 3670 2659 
Q 4109 2241 4109 1563 
Q 4109 813 3618 361 
Q 3128 -91 2303 -91 
Q 1394 -91 895 523 
Q 397 1138 397 2266 
Q 397 3422 980 4083 
Q 1563 4744 2578 4744 
Q 2900 4744 3203 4694 
Q 3506 4644 3803 4544 
z
" id="DejaVuSans-Bold-36" transform="scale(0.015625)"/>
     </defs>
     <use xlink:href="#DejaVuSans-Bold-28"/>
     <use x="45.703125" xlink:href="#DejaVuSans-Bold-30"/>
     <use x="115.283203" xlink:href="#DejaVuSans-Bold-2c"/>
     <use x="153.271484" xlink:href="#DejaVuSans-Bold-36"/>
     <use x="222.851562" xlink:href="#DejaVuSans-Bold-29"/>
    </g>
   </g>
   <g id="text_8">
    <!-- (1,0) -->
    <g style="fill:#ffffff;" transform="translate(47.869922 435.275312)scale(0.11 -0.11)">
     <use xlink:href="#DejaVuSans-Bold-28"/>
     <use x="45.703125" xlink:href="#DejaVuSans-Bold-31"/>
     <use x="115.283203" xlink:href="#DejaVuSans-Bold-2c"/>
     <use x="153.271484" xlink:href="#DejaVuSans-Bold-30"/>
     <use x="222.851562" xlink:href="#DejaVuSans-Bold-29"/>
    </g>
   </g>
   <g id="text_9">
    <!-- (1,1) -->
    <g style="fill:#ffffff;" transform="translate(121.789922 435.275312)scale(0.11 -0.11)">
     <use xlink:href="#DejaVuSans-Bold-28"/>
     <use x="45.703125" xlink:href="#DejaVuSans-Bold-31"/>
     <use x="115.283203" xlink:href="#DejaVuSans-Bold-2c"/>
     <use x="153.271484" xlink:href="#DejaVuSans-Bold-31"/>
     <use x="222.851562" xlink:href="#DejaVuSans-Bold-29"/>
    </g>
   </g>
   <g id="text_10">
    <!-- (1,2) -->
    <g style="fill:#ffffff;" transform="translate(195.709922 435.275312)scale(0.11 -0.11)">
     <use xlink:href="#DejaVuSans-Bold-28"/>
     <use x="45.703125" xlink:href="#DejaVuSans-Bold-31"/>
     <use x="115.283203" xlink:href="#DejaVuSans-Bold-2c"/>
     <use x="153.271484" xlink:href="#DejaVuSans-Bold-32"/>
     <use x="222.851562" xlink:href="#DejaVuSans-Bold-29"/>
    </g>
   </g>
   <g id="text_11">
    <!-- (1,3) -->
    <g style="fill:#ffffff;" transform="translate(269.629922 435.275312)scale(0.11 -0.11)">
     <use xlink:href="#DejaVuSans-Bold-28"/>
     <use x="45.703125" xlink:href="#DejaVuSans-Bold-31"/>
     <use x="115.283203" xlink:href="#DejaVuSans-Bold-2c"/>
     <use x="153.271484" xlink:href="#DejaVuSans-Bold-33"/>
     <use x="222.851562" xlink:href="#DejaVuSans-Bold-29"/>
    </g>
   </g>
   <g id="text_12">
    <!-- (1,4) -->
    <g style="fill:#ffffff;" transform="translate(343.549922 435.275312)scale(0.11 -0.11)">
     <use xlink:href="#DejaVuSans-Bold-28"/>
     <use x="45.703125" xlink:href="#DejaVuSans-Bold-31"/>
     <use x="115.283203" xlink:href="#DejaVuSans-Bold-2c"/>
     <use x="153.271484" xlink:href="#DejaVuSans-Bold-34"/>
     <use x="222.851562" xlink:href="#DejaVuSans-Bold-29"/>
    </g>
   </g>
   <g id="text_13">
    <!-- (1,5) -->
    <g style="fill:#ffffff;" transform="translate(417.469922 435.275312)scale(0.11 -0.11)">
     <use xlink:href="#DejaVuSans-Bold-28"/>
     <use x="45.703125" xlink:href="#DejaVuSans-Bold-31"/>
     <use x="115.283203" xlink:href="#DejaVuSans-Bold-2c"/>
     <use x="153.271484" xlink:href="#DejaVuSans-Bold-35"/>
     <use x="222.851562" xlink:href="#DejaVuSans-Bold-29"/>
    </g>
   </g>
   <g id="text_14">
    <!-- (1,6) -->
    <g style="fill:#ffffff;" transform="translate(491.389922 435.275312)scale(0.11 -0.11)">
     <use xlink:href="#DejaVuSans-Bold-28"/>
     <use x="45.703125" xlink:href="#DejaVuSans-Bold-31"/>
     <use x="115.283203" xlink:href="#DejaVuSans-Bold-2c"/>
     <use x="153.271484" xlink:href="#DejaVuSans-Bold-36"/>
     <use x="222.851562" xlink:href="#DejaVuSans-Bold-29"/>
    </g>
   </g>
   <g id="text_15">
    <!-- (2,0) -->
    <g style="fill:#ffffff;" transform="translate(47.869922 361.355312)scale(0.11 -0.11)">
     <use xlink:href="#DejaVuSans-Bold-28"/>
     <use x="45.703125" xlink:href="#DejaVuSans-Bold-32"/>
     <use x="115.283203" xlink:href="#DejaVuSans-Bold-2c"/>
     <use x="153.271484" xlink:href="#DejaVuSans-Bold-30"/>
     <use x="222.851562" xlink:href="#DejaVuSans-Bold-29"/>
    </g>
   </g>
   <g id="text_16">
    <!-- (2,1) -->
    <g style="fill:#ffffff;" transform="translate(121.789922 361.355312)scale(0.11 -0.11)">
     <use xlink:href="#DejaVuSans-Bold-28"/>
     <use x="45.703125" xlink:href="#DejaVuSans-Bold-32"/>
     <use x="115.283203" xlink:href="#DejaVuSans-Bold-2c"/>
     <use x="153.271484" xlink:href="#DejaVuSans-Bold-31"/>
     <use x="222.851562" xlink:href="#DejaVuSans-Bold-29"/>
    </g>
   </g>
   <g id="text_17">
    <!-- (2,2) -->
    <g style="fill:#ffffff;" transform="translate(195.709922 361.355312)scale(0.11 -0.11)">
     <use xlink:href="#DejaVuSans-Bold-28"/>
     <use x="45.703125" xlink:href="#DejaVuSans-Bold-32"/>
     <use x="115.283203" xlink:href="#DejaVuSans-Bold-2c"/>
     <use x="153.271484" xlink:href="#DejaVuSans-Bold-32"/>
     <use x="222.851562" xlink:href="#DejaVuSans-Bold-29"/>
    </g>
   </g>
   <g id="text_18">
    <!-- (2,3) -->
    <g style="fill:#ffffff;" transform="translate(269.629922 361.355312)scale(0.11 -0.11)">
     <use xlink:href="#DejaVuSans-Bold-28"/>
     <use x="45.703125" xlink:href="#DejaVuSans-Bold-32"/>
     <use x="115.283203" xlink:href="#DejaVuSans-Bold-2c"/>
     <use x="153.271484" xlink:href="#DejaVuSans-Bold-33"/>
     <use x="222.851562" xlink:href="#DejaVuSans-Bold-29"/>
    </g>
   </g>
   <g id="text_19">
    <!-- (2,4) -->
    <g style="fill:#ffffff;" transform="translate(343.549922 361.355312)scale(0.11 -0.11)">
     <use xlink:href="#DejaVuSans-Bold-28"/>
     <use x="45.703125" xlink:href="#DejaVuSans-Bold-32"/>
     <use x="115.283203" xlink:href="#DejaVuSans-Bold-2c"/>
     <use x="153.271484" xlink:href="#DejaVuSans-Bold-34"/>
     <use x="222.851562" xlink:href="#DejaVuSans-Bold-29"/>
    </g>
   </g>
   <g id="text_20">
    <!-- (2,5) -->
    <g style="fill:#ffffff;" transform="translate(417.469922 361.355312)scale(0.11 -0.11)">
     <use xlink:href="#DejaVuSans-Bold-28"/>
     <use x="45.703125" xlink:href="#DejaVuSans-Bold-32"/>
     <use x="115.283203" xlink:href="#DejaVuSans-Bold-2c"/>
     <use x="153.271484" xlink:href="#DejaVuSans-Bold-35"/>
     <use x="222.851562" xlink:href="#DejaVuSans-Bold-29"/>
    </g>
   </g>
   <g id="text_21">
    <!-- (2,6) -->
    <g style="fill:#ffffff;" transform="translate(491.389922 361.355312)scale(0.11 -0.11)">
     <use xlink:href="#DejaVuSans-Bold-28"/>
     <use x="45.703125" xlink:href="#DejaVuSans-Bold-32"/>
     <use x="115.283203" xlink:href="#DejaVuSans-Bold-2c"/>
     <use x="153.271484" xlink:href="#DejaVuSans-Bold-36"/>
     <use x="222.851562" xlink:href="#DejaVuSans-Bold-29"/>
    </g>
   </g>
   <g id="text_22">
    <!-- (3,0) -->
    <g style="fill:#ffffff;" transform="translate(47.869922 287.435312)scale(0.11 -0.11)">
     <use xlink:href="#DejaVuSans-Bold-28"/>
     <use x="45.703125" xlink:href="#DejaVuSans-Bold-33"/>
     <use x="115.283203" xlink:href="#DejaVuSans-Bold-2c"/>
     <use x="153.271484" xlink:href="#DejaVuSans-Bold-30"/>
     <use x="222.851562" xlink:href="#DejaVuSans-Bold-29"/>
    </g>
   </g>
   <g id="text_23">
    <!-- (3,1) -->
    <g style="fill:#ffffff;" transform="translate(121.789922 287.435312)scale(0.11 -0.11)">
     <use xlink:href="#DejaVuSans-Bold-28"/>
     <use x="45.703125" xlink:href="#DejaVuSans-Bold-33"/>
     <use x="115.283203" xlink:href="#DejaVuSans-Bold-2c"/>
     <use x="153.271484" xlink:href="#DejaVuSans-Bold-31"/>
     <use x="222.851562" xlink:href="#DejaVuSans-Bold-29"/>
    </g>
   </g>
   <g id="text_24">
    <!-- (3,2) -->
    <g style="fill:#ffffff;" transform="translate(195.709922 287.435312)scale(0.11 -0.11)">
     <use xlink:href="#DejaVuSans-Bold-28"/>
     <use x="45.703125" xlink:href="#DejaVuSans-Bold-33"/>
     <use x="115.283203" xlink:href="#DejaVuSans-Bold-2c"/>
     <use x="153.271484" xlink:href="#DejaVuSans-Bold-32"/>
     <use x="222.851562" xlink:href="#DejaVuSans-Bold-29"/>
    </g>
   </g>
   <g id="text_25">
    <!-- (3,3) -->
    <g style="fill:#ffffff;" transform="translate(269.629922 287.435312)scale(0.11 -0.11)">
     <use xlink:href="#DejaVuSans-Bold-28"/>
     <use x="45.703125" xlink:href="#DejaVuSans-Bold-33"/>
     <use x="115.283203" xlink:href="#DejaVuSans-Bold-2c"/>
     <use x="153.271484" xlink:href="#DejaVuSans-Bold-33"/>
     <use x="222.851562" xlink:href="#DejaVuSans-Bold-29"/>
    </g>
   </g>
   <g id="text_26">
    <!-- (3,4) -->
    <g style="fill:#ffffff;" transform="translate(343.549922 287.435312)scale(0.11 -0.11)">
     <use xlink:href="#DejaVuSans-Bold-28"/>
     <use x="45.703125" xlink:href="#DejaVuSans-Bold-33"/>
     <use x="115.283203" xlink:href="#DejaVuSans-Bold-2c"/>
     <use x="153.271484" xlink:href="#DejaVuSans-Bold-34"/>
     <use x="222.851562" xlink:href="#DejaVuSans-Bold-29"/>
    </g>
   </g>
   <g id="text_27">
    <!-- (3,5) -->
    <g style="fill:#ffffff;" transform="translate(417.469922 287.435312)scale(0.11 -0.11)">
     <use xlink:href="#DejaVuSans-Bold-28"/>
     <use x="45.703125" xlink:href="#DejaVuSans-Bold-33"/>
     <use x="115.283203" xlink:href="#DejaVuSans-Bold-2c"/>
     <use x="153.271484" xlink:href="#DejaVuSans-Bold-35"/>
     <use x="222.851562" xlink:href="#DejaVuSans-Bold-29"/>
    </g>
   </g>
   <g id="text_28">
    <!-- (3,6) -->
    <g style="fill:#ffffff;" transform="translate(491.389922 287.435312)scale(0.11 -0.11)">
     <use xlink:href="#DejaVuSans-Bold-28"/>
     <use x="45.703125" xlink:href="#DejaVuSans-Bold-33"/>
     <use x="115.283203" xlink:href="#DejaVuSans-Bold-2c"/>
     <use x="153.271484" xlink:href="#DejaVuSans-Bold-36"/>
     <use x="222.851562" xlink:href="#DejaVuSans-Bold-29"/>
    </g>
   </g>
   <g id="text_29">
    <!-- (4,0) -->
    <g style="fill:#ffffff;" transform="translate(47.869922 213.515312)scale(0.11 -0.11)">
     <use xlink:href="#DejaVuSans-Bold-28"/>
     <use x="45.703125" xlink:href="#DejaVuSans-Bold-34"/>
     <use x="115.283203" xlink:href="#DejaVuSans-Bold-2c"/>
     <use x="153.271484" xlink:href="#DejaVuSans-Bold-30"/>
     <use x="222.851562" xlink:href="#DejaVuSans-Bold-29"/>
    </g>
   </g>
   <g id="text_30">
    <!-- (4,1) -->
    <g style="fill:#ffffff;" transform="translate(121.789922 213.515312)scale(0.11 -0.11)">
     <use xlink:href="#DejaVuSans-Bold-28"/>
     <use x="45.703125" xlink:href="#DejaVuSans-Bold-34"/>
     <use x="115.283203" xlink:href="#DejaVuSans-Bold-2c"/>
     <use x="153.271484" xlink:href="#DejaVuSans-Bold-31"/>
     <use x="222.851562" xlink:href="#DejaVuSans-Bold-29"/>
    </g>
   </g>
   <g id="text_31">
    <!-- (4,2) -->
    <g style="fill:#ffffff;" transform="translate(195.709922 213.515312)scale(0.11 -0.11)">
     <use xlink:href="#DejaVuSans-Bold-28"/>
     <use x="45.703125" xlink:href="#DejaVuSans-Bold-34"/>
     <use x="115.283203" xlink:href="#DejaVuSans-Bold-2c"/>
     <use x="153.271484" xlink:href="#DejaVuSans-Bold-32"/>
     <use x="222.851562" xlink:href="#DejaVuSans-Bold-29"/>
    </g>
   </g>
   <g id="text_32">
    <!-- (4,3) -->
    <g style="fill:#ffffff;" transform="translate(269.629922 213.515312)scale(0.11 -0.11)">
     <use xlink:href="#DejaVuSans-Bold-28"/>
     <use x="45.703125" xlink:href="#DejaVuSans-Bold-34"/>
     <use x="115.283203" xlink:href="#DejaVuSans-Bold-2c"/>
     <use x="153.271484" xlink:href="#DejaVuSans-Bold-33"/>
     <use x="222.851562" xlink:href="#DejaVuSans-Bold-29"/>
    </g>
   </g>
   <g id="text_33">
    <!-- (4,4) -->
    <g style="fill:#ffffff;" transform="translate(343.549922 213.515312)scale(0.11 -0.11)">
     <use xlink:href="#DejaVuSans-Bold-28"/>
     <use x="45.703125" xlink:href="#DejaVuSans-Bold-34"/>
     <use x="115.283203" xlink:href="#DejaVuSans-Bold-2c"/>
     <use x="153.271484" xlink:href="#DejaVuSans-Bold-34"/>
     <use x="222.851562" xlink:href="#DejaVuSans-Bold-29"/>
    </g>
   </g>
   <g id="text_34">
    <!-- (4,5) -->
    <g style="fill:#ffffff;" transform="translate(417.469922 213.515312)scale(0.11 -0.11)">
     <use xlink:href="#DejaVuSans-Bold-28"/>
     <use x="45.703125" xlink:href="#DejaVuSans-Bold-34"/>
     <use x="115.283203" xlink:href="#DejaVuSans-Bold-2c"/>
     <use x="153.271484" xlink:href="#DejaVuSans-Bold-35"/>
     <use x="222.851562" xlink:href="#DejaVuSans-Bold-29"/>
    </g>
   </g>
   <g id="text_35">
    <!-- (4,6) -->
    <g style="fill:#ffffff;" transform="translate(491.389922 213.515312)scale(0.11 -0.11)">
     <use xlink:href="#DejaVuSans-Bold-28"/>
     <use x="45.703125" xlink:href="#DejaVuSans-Bold-34"/>
     <use x="115.283203" xlink:href="#DejaVuSans-Bold-2c"/>
     <use x="153.271484" xlink:href="#DejaVuSans-Bold-36"/>
     <use x="222.851562" xlink:href="#DejaVuSans-Bold-29"/>
    </g>
   </g>
   <g id="text_36">
    <!-- (5,0) -->
    <g style="fill:#ffffff;" transform="translate(47.869922 139.595312)scale(0.11 -0.11)">
     <use xlink:href="#DejaVuSans-Bold-28"/>
     <use x="45.703125" xlink:href="#DejaVuSans-Bold-35"/>
     <use x="115.283203" xlink:href="#DejaVuSans-Bold-2c"/>
     <use x="153.271484" xlink:href="#DejaVuSans-Bold-30"/>
     <use x="222.851562" xlink:href="#DejaVuSans-Bold-29"/>
    </g>
   </g>
   <g id="text_37">
    <!-- (5,1) -->
    <g style="fill:#ffffff;" transform="translate(121.789922 139.595312)scale(0.11 -0.11)">
     <use xlink:href="#DejaVuSans-Bold-28"/>
     <use x="45.703125" xlink:href="#DejaVuSans-Bold-35"/>
     <use x="115.283203" xlink:href="#DejaVuSans-Bold-2c"/>
     <use x="153.271484" xlink:href="#DejaVuSans-Bold-31"/>
     <use x="222.851562" xlink:href="#DejaVuSans-Bold-29"/>
    </g>
   </g>
   <g id="text_38">
    <!-- (5,2) -->
    <g style="fill:#ffffff;" transform="translate(195.709922 139.595312)scale(0.11 -0.11)">
     <use xlink:href="#DejaVuSans-Bold-28"/>
     <use x="45.703125" xlink:href="#DejaVuSans-Bold-35"/>
     <use x="115.283203" xlink:href="#DejaVuSans-Bold-2c"/>
     <use x="153.271484" xlink:href="#DejaVuSans-Bold-32"/>
     <use x="222.851562" xlink:href="#DejaVuSans-Bold-29"/>
    </g>
   </g>
   <g id="text_39">
    <!-- (5,3) -->
    <g style="fill:#ffffff;" transform="translate(269.629922 139.595312)scale(0.11 -0.11)">
     <use xlink:href="#DejaVuSans-Bold-28"/>
     <use x="45.703125" xlink:href="#DejaVuSans-Bold-35"/>
     <use x="115.283203" xlink:href="#DejaVuSans-Bold-2c"/>
     <use x="153.271484" xlink:href="#DejaVuSans-Bold-33"/>
     <use x="222.851562" xlink:href="#DejaVuSans-Bold-29"/>
    </g>
   </g>
   <g id="text_40">
    <!-- (5,4) -->
    <g style="fill:#ffffff;" transform="translate(343.549922 139.595312)scale(0.11 -0.11)">
     <use xlink:href="#DejaVuSans-Bold-28"/>
     <use x="45.703125" xlink:href="#DejaVuSans-Bold-35"/>
     <use x="115.283203" xlink:href="#DejaVuSans-Bold-2c"/>
     <use x="153.271484" xlink:href="#DejaVuSans-Bold-34"/>
     <use x="222.851562" xlink:href="#DejaVuSans-Bold-29"/>
    </g>
   </g>
   <g id="text_41">
    <!-- (5,5) -->
    <g style="fill:#ffffff;" transform="translate(417.469922 139.595312)scale(0.11 -0.11)">
     <use xlink:href="#DejaVuSans-Bold-28"/>
     <use x="45.703125" xlink:href="#DejaVuSans-Bold-35"/>
     <use x="115.283203" xlink:href="#DejaVuSans-Bold-2c"/>
     <use x="153.271484" xlink:href="#DejaVuSans-Bold-35"/>
     <use x="222.851562" xlink:href="#DejaVuSans-Bold-29"/>
    </g>
   </g>
   <g id="text_42">
    <!-- (5,6) -->
    <g style="fill:#ffffff;" transform="translate(491.389922 139.595312)scale(0.11 -0.11)">
     <use xlink:href="#DejaVuSans-Bold-28"/>
     <use x="45.703125" xlink:href="#DejaVuSans-Bold-35"/>
     <use x="115.283203" xlink:href="#DejaVuSans-Bold-2c"/>
     <use x="153.271484" xlink:href="#DejaVuSans-Bold-36"/>
     <use x="222.851562" xlink:href="#DejaVuSans-Bold-29"/>
    </g>
   </g>
   <g id="text_43">
    <!-- (6,0) -->
    <g style="fill:#ffffff;" transform="translate(47.869922 65.675312)scale(0.11 -0.11)">
     <use xlink:href="#DejaVuSans-Bold-28"/>
     <use x="45.703125" xlink:href="#DejaVuSans-Bold-36"/>
     <use x="115.283203" xlink:href="#DejaVuSans-Bold-2c"/>
     <use x="153.271484" xlink:href="#DejaVuSans-Bold-30"/>
     <use x="222.851562" xlink:href="#DejaVuSans-Bold-29"/>
    </g>
   </g>
   <g id="text_44">
    <!-- (6,1) -->
    <g style="fill:#ffffff;" transform="translate(121.789922 65.675312)scale(0.11 -0.11)">
     <use xlink:href="#DejaVuSans-Bold-28"/>
     <use x="45.703125" xlink:href="#DejaVuSans-Bold-36"/>
     <use x="115.283203" xlink:href="#DejaVuSans-Bold-2c"/>
     <use x="153.271484" xlink:href="#DejaVuSans-Bold-31"/>
     <use x="222.851562" xlink:href="#DejaVuSans-Bold-29"/>
    </g>
   </g>
   <g id="text_45">
    <!-- (6,2) -->
    <g style="fill:#ffffff;" transform="translate(195.709922 65.675312)scale(0.11 -0.11)">
     <use xlink:href="#DejaVuSans-Bold-28"/>
     <use x="45.703125" xlink:href="#DejaVuSans-Bold-36"/>
     <use x="115.283203" xlink:href="#DejaVuSans-Bold-2c"/>
     <use x="153.271484" xlink:href="#DejaVuSans-Bold-32"/>
     <use x="222.851562" xlink:href="#DejaVuSans-Bold-29"/>
    </g>
   </g>
   <g id="text_46">
    <!-- (6,3) -->
    <g style="fill:#ffffff;" transform="translate(269.629922 65.675312)scale(0.11 -0.11)">
     <use xlink:href="#DejaVuSans-Bold-28"/>
     <use x="45.703125" xlink:href="#DejaVuSans-Bold-36"/>
     <use x="115.283203" xlink:href="#DejaVuSans-Bold-2c"/>
     <use x="153.271484" xlink:href="#DejaVuSans-Bold-33"/>
     <use x="222.851562" xlink:href="#DejaVuSans-Bold-29"/>
    </g>
   </g>
   <g id="text_47">
    <!-- (6,4) -->
    <g style="fill:#ffffff;" transform="translate(343.549922 65.675312)scale(0.11 -0.11)">
     <use xlink:href="#DejaVuSans-Bold-28"/>
     <use x="45.703125" xlink:href="#DejaVuSans-Bold-36"/>
     <use x="115.283203" xlink:href="#DejaVuSans-Bold-2c"/>
     <use x="153.271484" xlink:href="#DejaVuSans-Bold-34"/>
     <use x="222.851562" xlink:href="#DejaVuSans-Bold-29"/>
    </g>
   </g>
   <g id="text_48">
    <!-- (6,5) -->
    <g style="fill:#ffffff;" transform="translate(417.469922 65.675312)scale(0.11 -0.11)">
     <use xlink:href="#DejaVuSans-Bold-28"/>
     <use x="45.703125" xlink:href="#DejaVuSans-Bold-36"/>
     <use x="115.283203" xlink:href="#DejaVuSans-Bold-2c"/>
     <use x="153.271484" xlink:href="#DejaVuSans-Bold-35"/>
     <use x="222.851562" xlink:href="#DejaVuSans-Bold-29"/>
    </g>
   </g>
   <g id="text_49">
    <!-- (6,6) -->
    <g style="fill:#ffffff;" transform="translate(491.389922 65.675312)scale(0.11 -0.11)">
     <use xlink:href="#DejaVuSans-Bold-28"/>
     <use x="45.703125" xlink:href="#DejaVuSans-Bold-36"/>
     <use x="115.283203" xlink:href="#DejaVuSans-Bold-2c"/>
     <use x="153.271484" xlink:href="#DejaVuSans-Bold-36"/>
     <use x="222.851562" xlink:href="#DejaVuSans-Bold-29"/>
    </g>
   </g>
  </g>
 </g>
 <defs>
  <clipPath id="p3f140f47a8">
   <rect height="554.4" width="554.4" x="7.2" y="7.2"/>
  </clipPath>
 </defs>
</svg>
